<mxfile>
  <diagram id="jrT80_FzYf5kzHH22k15" name="Page-1">
    <mxGraphModel dx="1316" dy="800" grid="1" gridSize="10" guides="1" tooltips="1" connect="1" arrows="1" fold="1" page="1" pageScale="1" pageWidth="1654" pageHeight="2336" background="#ffffff" math="0" shadow="0">
      <root>
        <mxCell id="0" />
        <mxCell id="1" parent="0" />
        <mxCell id="10" value="" style="ellipse;fillColor=strokeColor;html=1;" parent="1" vertex="1">
          <mxGeometry x="330" y="15" width="30" height="30" as="geometry" />
        </mxCell>
        <mxCell id="11" value="" style="endArrow=none;startArrow=none;endFill=0;startFill=0;endSize=8;html=1;verticalAlign=bottom;labelBackgroundColor=none;strokeWidth=1;exitX=1;exitY=0.5;exitDx=0;exitDy=0;entryX=0;entryY=0.5;entryDx=0;entryDy=0;" parent="1" source="10" edge="1">
          <mxGeometry width="160" relative="1" as="geometry">
            <mxPoint x="410" y="70" as="sourcePoint" />
            <mxPoint x="490" y="30" as="targetPoint" />
          </mxGeometry>
        </mxCell>
        <mxCell id="12" value="" style="ellipse;html=1;shape=endState;fillColor=strokeColor;" parent="1" vertex="1">
          <mxGeometry x="355" y="880" width="30" height="30" as="geometry" />
        </mxCell>
        <mxCell id="13" value="" style="endArrow=none;startArrow=none;endFill=0;startFill=0;endSize=8;html=1;verticalAlign=bottom;labelBackgroundColor=none;strokeWidth=1;exitX=0.5;exitY=1;exitDx=0;exitDy=0;entryX=0.5;entryY=0;entryDx=0;entryDy=0;" parent="1" source="44" target="12" edge="1">
          <mxGeometry width="160" relative="1" as="geometry">
            <mxPoint x="350" y="800" as="sourcePoint" />
            <mxPoint x="430" y="830" as="targetPoint" />
          </mxGeometry>
        </mxCell>
        <mxCell id="14" value="Idle" style="swimlane;fontStyle=4;align=center;verticalAlign=top;childLayout=stackLayout;horizontal=1;startSize=36;horizontalStack=0;resizeParent=1;resizeParentMax=0;resizeLast=0;collapsible=0;marginBottom=0;html=1;rounded=1;absoluteArcSize=1;arcSize=50;whiteSpace=wrap;" parent="1" vertex="1">
          <mxGeometry x="490" width="140" height="90" as="geometry" />
        </mxCell>
        <mxCell id="18" value="/entry hardware_check&lt;div&gt;/do monitore_env&lt;/div&gt;&lt;div&gt;/exit&amp;nbsp; command&lt;/div&gt;" style="fillColor=none;strokeColor=none;align=left;verticalAlign=middle;spacingLeft=5;whiteSpace=wrap;html=1;" parent="14" vertex="1">
          <mxGeometry y="36" width="140" height="54" as="geometry" />
        </mxCell>
        <mxCell id="21" value="Listening" style="swimlane;fontStyle=4;align=center;verticalAlign=top;childLayout=stackLayout;horizontal=1;startSize=36;horizontalStack=0;resizeParent=1;resizeParentMax=0;resizeLast=0;collapsible=0;marginBottom=0;html=1;rounded=1;absoluteArcSize=1;arcSize=50;whiteSpace=wrap;" parent="1" vertex="1">
          <mxGeometry x="445" y="130" width="230" height="123" as="geometry" />
        </mxCell>
        <mxCell id="25" value="/entry activate_micro&lt;div&gt;/do listen&lt;/div&gt;&lt;div&gt;/exit command_stored&lt;/div&gt;" style="fillColor=none;strokeColor=none;align=left;verticalAlign=middle;spacingLeft=5;whiteSpace=wrap;html=1;" parent="21" vertex="1">
          <mxGeometry y="36" width="230" height="54" as="geometry" />
        </mxCell>
        <mxCell id="26" value="" style="line;strokeWidth=1;fillColor=none;align=left;verticalAlign=middle;spacingTop=-1;spacingLeft=3;spacingRight=3;rotatable=0;labelPosition=right;points=[];portConstraint=eastwest;" parent="21" vertex="1">
          <mxGeometry y="90" width="230" height="8" as="geometry" />
        </mxCell>
        <mxCell id="27" value="voice_detected() / speech_recognition()&lt;div&gt;&lt;br&gt;&lt;/div&gt;" style="fillColor=none;strokeColor=none;align=left;verticalAlign=middle;spacingLeft=5;whiteSpace=wrap;html=1;" parent="21" vertex="1">
          <mxGeometry y="98" width="230" height="25" as="geometry" />
        </mxCell>
        <mxCell id="70" value="" style="edgeStyle=none;html=1;" parent="1" source="28" target="68" edge="1">
          <mxGeometry relative="1" as="geometry" />
        </mxCell>
        <mxCell id="28" value="Processing Command&lt;div&gt;&lt;br style=&quot;color: rgb(63, 63, 63);&quot;&gt;&lt;/div&gt;" style="swimlane;fontStyle=4;align=center;verticalAlign=top;childLayout=stackLayout;horizontal=1;startSize=40;horizontalStack=0;resizeParent=1;resizeParentMax=0;resizeLast=0;collapsible=0;marginBottom=0;html=1;rounded=1;absoluteArcSize=1;arcSize=50;whiteSpace=wrap;" parent="1" vertex="1">
          <mxGeometry x="420" y="300" width="280" height="133" as="geometry" />
        </mxCell>
        <mxCell id="32" value="/entry parse_command&lt;div&gt;/do check_planning&lt;/div&gt;&lt;div&gt;/exit validate_next_action&lt;/div&gt;" style="fillColor=none;strokeColor=none;align=left;verticalAlign=middle;spacingLeft=5;whiteSpace=wrap;html=1;" parent="28" vertex="1">
          <mxGeometry y="40" width="280" height="60" as="geometry" />
        </mxCell>
        <mxCell id="33" value="" style="line;strokeWidth=1;fillColor=none;align=left;verticalAlign=middle;spacingTop=-1;spacingLeft=3;spacingRight=3;rotatable=0;labelPosition=right;points=[];portConstraint=eastwest;" parent="28" vertex="1">
          <mxGeometry y="100" width="280" height="8" as="geometry" />
        </mxCell>
        <mxCell id="34" value="&lt;code style=&quot;color: rgb(63, 63, 63);&quot; class=&quot;&quot;&gt;validation()[&lt;/code&gt;&lt;span style=&quot;color: rgb(63, 63, 63);&quot;&gt;isCommandValid()]&lt;/span&gt;&lt;b style=&quot;color: rgb(63, 63, 63);&quot;&gt;&amp;nbsp;/&lt;/b&gt;&lt;code style=&quot;color: rgb(63, 63, 63);&quot; class=&quot;&quot;&gt;planExecution()&lt;/code&gt;" style="fillColor=none;strokeColor=none;align=left;verticalAlign=middle;spacingLeft=5;whiteSpace=wrap;html=1;" parent="28" vertex="1">
          <mxGeometry y="108" width="280" height="25" as="geometry" />
        </mxCell>
        <mxCell id="38" value="Executing" style="swimlane;fontStyle=4;align=center;verticalAlign=top;childLayout=stackLayout;horizontal=1;startSize=40;horizontalStack=0;resizeParent=1;resizeParentMax=0;resizeLast=0;collapsible=0;marginBottom=0;html=1;rounded=1;absoluteArcSize=1;arcSize=50;whiteSpace=wrap;" parent="1" vertex="1">
          <mxGeometry x="280" y="640" width="180" height="123" as="geometry" />
        </mxCell>
        <mxCell id="42" value="&lt;span style=&quot;color: rgb(0, 0, 0);&quot;&gt;/entry next_action&lt;/span&gt;&lt;div&gt;/do perform&lt;/div&gt;&lt;div&gt;/exit verify&lt;/div&gt;" style="fillColor=none;strokeColor=none;align=left;verticalAlign=middle;spacingLeft=5;whiteSpace=wrap;html=1;" parent="38" vertex="1">
          <mxGeometry y="40" width="180" height="50" as="geometry" />
        </mxCell>
        <mxCell id="43" value="" style="line;strokeWidth=1;fillColor=none;align=left;verticalAlign=middle;spacingTop=-1;spacingLeft=3;spacingRight=3;rotatable=0;labelPosition=right;points=[];portConstraint=eastwest;" parent="38" vertex="1">
          <mxGeometry y="90" width="180" height="8" as="geometry" />
        </mxCell>
        <mxCell id="44" value="actionDone() / updatePlan()" style="fillColor=none;strokeColor=none;align=left;verticalAlign=middle;spacingLeft=5;whiteSpace=wrap;html=1;" parent="38" vertex="1">
          <mxGeometry y="98" width="180" height="25" as="geometry" />
        </mxCell>
        <mxCell id="45" value="Conflict Resolution" style="swimlane;fontStyle=4;align=center;verticalAlign=top;childLayout=stackLayout;horizontal=1;startSize=44;horizontalStack=0;resizeParent=1;resizeParentMax=0;resizeLast=0;collapsible=0;marginBottom=0;html=1;rounded=1;absoluteArcSize=1;arcSize=50;whiteSpace=wrap;" parent="1" vertex="1">
          <mxGeometry x="750" y="640" width="170" height="123" as="geometry" />
        </mxCell>
        <mxCell id="49" value="/entry analyse_conflict&lt;div&gt;/do evaluate_impact&lt;/div&gt;&lt;div&gt;/exit decide&lt;/div&gt;" style="fillColor=none;strokeColor=none;align=left;verticalAlign=middle;spacingLeft=5;whiteSpace=wrap;html=1;" parent="45" vertex="1">
          <mxGeometry y="44" width="170" height="46" as="geometry" />
        </mxCell>
        <mxCell id="50" value="" style="line;strokeWidth=1;fillColor=none;align=left;verticalAlign=middle;spacingTop=-1;spacingLeft=3;spacingRight=3;rotatable=0;labelPosition=right;points=[];portConstraint=eastwest;" parent="45" vertex="1">
          <mxGeometry y="90" width="170" height="8" as="geometry" />
        </mxCell>
        <mxCell id="51" value="minImpact() / modifyPlan()" style="fillColor=none;strokeColor=none;align=left;verticalAlign=middle;spacingLeft=5;whiteSpace=wrap;html=1;" parent="45" vertex="1">
          <mxGeometry y="98" width="170" height="25" as="geometry" />
        </mxCell>
        <mxCell id="52" value="Command Accepted" style="swimlane;fontStyle=4;align=center;verticalAlign=top;childLayout=stackLayout;horizontal=1;startSize=40;horizontalStack=0;resizeParent=1;resizeParentMax=0;resizeLast=0;collapsible=0;marginBottom=0;html=1;rounded=1;absoluteArcSize=1;arcSize=50;whiteSpace=wrap;" parent="1" vertex="1">
          <mxGeometry x="600" y="920" width="170" height="125" as="geometry" />
        </mxCell>
        <mxCell id="56" value="/entry update_plan&lt;div&gt;/do execute_new_plan&lt;/div&gt;&lt;div&gt;/exit verify&lt;/div&gt;" style="fillColor=none;strokeColor=none;align=left;verticalAlign=middle;spacingLeft=5;whiteSpace=wrap;html=1;" parent="52" vertex="1">
          <mxGeometry y="40" width="170" height="50" as="geometry" />
        </mxCell>
        <mxCell id="57" value="" style="line;strokeWidth=1;fillColor=none;align=left;verticalAlign=middle;spacingTop=-1;spacingLeft=3;spacingRight=3;rotatable=0;labelPosition=right;points=[];portConstraint=eastwest;" parent="52" vertex="1">
          <mxGeometry y="90" width="170" height="10" as="geometry" />
        </mxCell>
        <mxCell id="58" value="&lt;span style=&quot;color: rgb(0, 0, 0);&quot;&gt;actionDone() / updatePlan()&lt;/span&gt;" style="fillColor=none;strokeColor=none;align=left;verticalAlign=middle;spacingLeft=5;whiteSpace=wrap;html=1;" parent="52" vertex="1">
          <mxGeometry y="100" width="170" height="25" as="geometry" />
        </mxCell>
        <mxCell id="59" value="&lt;span style=&quot;color: rgb(63, 63, 63);&quot;&gt;Command Rejected&lt;/span&gt;" style="swimlane;fontStyle=4;align=center;verticalAlign=top;childLayout=stackLayout;horizontal=1;startSize=40;horizontalStack=0;resizeParent=1;resizeParentMax=0;resizeLast=0;collapsible=0;marginBottom=0;html=1;rounded=1;absoluteArcSize=1;arcSize=50;whiteSpace=wrap;" parent="1" vertex="1">
          <mxGeometry x="910" y="920" width="140" height="90" as="geometry" />
        </mxCell>
        <mxCell id="63" value="/entry notify_rejection&lt;div&gt;/do maintain_plan&lt;/div&gt;&lt;div&gt;/exit return_to_idle&lt;/div&gt;" style="fillColor=none;strokeColor=none;align=left;verticalAlign=middle;spacingLeft=5;whiteSpace=wrap;html=1;" parent="59" vertex="1">
          <mxGeometry y="40" width="140" height="50" as="geometry" />
        </mxCell>
        <mxCell id="66" value="" style="edgeStyle=none;html=1;" parent="1" source="18" edge="1">
          <mxGeometry relative="1" as="geometry">
            <mxPoint x="560" y="130" as="targetPoint" />
          </mxGeometry>
        </mxCell>
        <mxCell id="67" value="" style="edgeStyle=none;html=1;" parent="1" source="27" edge="1">
          <mxGeometry relative="1" as="geometry">
            <mxPoint x="560" y="300" as="targetPoint" />
          </mxGeometry>
        </mxCell>
        <mxCell id="71" style="edgeStyle=none;html=1;entryX=0.5;entryY=0;entryDx=0;entryDy=0;" parent="1" source="68" target="38" edge="1">
          <mxGeometry relative="1" as="geometry">
            <Array as="points">
              <mxPoint x="370" y="515" />
            </Array>
          </mxGeometry>
        </mxCell>
        <mxCell id="72" style="edgeStyle=none;html=1;entryX=0.5;entryY=0;entryDx=0;entryDy=0;" parent="1" source="68" target="45" edge="1">
          <mxGeometry relative="1" as="geometry">
            <Array as="points">
              <mxPoint x="835" y="515" />
            </Array>
          </mxGeometry>
        </mxCell>
        <mxCell id="68" value="" style="rhombus;" parent="1" vertex="1">
          <mxGeometry x="545" y="500" width="30" height="30" as="geometry" />
        </mxCell>
        <mxCell id="76" style="edgeStyle=none;html=1;entryX=0.5;entryY=0;entryDx=0;entryDy=0;" parent="1" source="69" target="52" edge="1">
          <mxGeometry relative="1" as="geometry">
            <Array as="points">
              <mxPoint x="685" y="835" />
            </Array>
          </mxGeometry>
        </mxCell>
        <mxCell id="77" style="edgeStyle=none;html=1;entryX=0.5;entryY=0;entryDx=0;entryDy=0;" parent="1" source="69" target="59" edge="1">
          <mxGeometry relative="1" as="geometry">
            <Array as="points">
              <mxPoint x="980" y="835" />
            </Array>
          </mxGeometry>
        </mxCell>
        <mxCell id="69" value="" style="rhombus;" parent="1" vertex="1">
          <mxGeometry x="820" y="820" width="30" height="30" as="geometry" />
        </mxCell>
        <mxCell id="75" style="edgeStyle=none;html=1;entryX=0.5;entryY=0;entryDx=0;entryDy=0;" parent="1" source="51" target="69" edge="1">
          <mxGeometry relative="1" as="geometry" />
        </mxCell>
      </root>
    </mxGraphModel>
  </diagram>
</mxfile>
